<?xml version="1.0" ?><svg id="Icons" style="enable-background:new 0 0 32 32;" version="1.1" viewBox="0 0 32 32" xml:space="preserve" xmlns="http://www.w3.org/2000/svg" xmlns:xlink="http://www.w3.org/1999/xlink"><style type="text/css">
	.st0{fill:none;stroke:#000000;stroke-width:2;stroke-linecap:round;stroke-linejoin:round;stroke-miterlimit:10;}
</style><path d="M29.9,24.6l-2-5C27.8,19.2,27.4,19,27,19V7c0-0.6-0.4-1-1-1H6C5.4,6,5,6.4,5,7v12c-0.4,0-0.8,0.2-0.9,0.6l-2,5  c-0.1,0.3-0.1,0.7,0.1,0.9S2.7,26,3,26h26c0.3,0,0.6-0.2,0.8-0.4S30.1,24.9,29.9,24.6z M7,8h18v11H7V8z"/></svg>