<?xml version="1.0" encoding="utf-8"?>
<!-- Generator: Adobe Illustrator 23.0.0, SVG Export Plug-In . SVG Version: 6.00 Build 0)  -->
<svg version="1.1" id="Capa_1" xmlns="http://www.w3.org/2000/svg" xmlns:xlink="http://www.w3.org/1999/xlink" x="0px" y="0px"
	 viewBox="0 0 240 200" style="enable-background:new 0 0 240 200;" xml:space="preserve">
<style type="text/css">
	.st0{fill:#212529;}
</style>
<path class="st0" d="M72.75,187.5c3.7-11.13,7.52-22.22,11.04-33.41c0.95-3.02,2.32-3.98,5.48-3.97
	c45.87,0.11,91.75,0.08,137.62,0.07c1.37,0,2.74-0.12,4.11-0.19c0,11.63-0.08,23.25,0.07,34.87c0.03,2.24-0.45,2.69-2.69,2.69
	C176.5,187.48,124.63,187.5,72.75,187.5z"/>
<path class="st0" d="M231,117c-34.84-0.03-69.67-0.06-104.51-0.09c-8.99-0.01-17.98-0.08-26.97,0.05c-2.77,0.04-3.15-0.75-2.28-3.26
	c3.44-10.02,6.84-20.06,9.96-30.17c0.93-3.01,2.23-4.02,5.43-4c32.21,0.13,64.43,0.08,96.65,0.07c7.24,0,14.48-0.06,21.72-0.09
	C231,92,231,104.5,231,117z"/>
<path class="st0" d="M231,46.5c-1.49-0.07-2.99-0.19-4.48-0.19c-34.23-0.01-68.46-0.01-102.69-0.01c-4.2,0-4.21-0.02-2.87-4.05
	c3.15-9.47,6.6-18.85,9.33-28.43c1.17-4.11,3.09-4.93,7.02-4.91C168.54,9.07,199.77,9,231,9C231,21.5,231,34,231,46.5z"/>
<path class="st0" d="M6,187.5c0.02-11.25,0.13-22.5,0-33.74c-0.03-2.74,0.58-3.68,3.49-3.63c11,0.17,22,0.2,32.99-0.01
	c3.39-0.06,3.29,1.08,2.43,3.64c-3.79,11.22-7.45,22.49-11.15,33.74C24.5,187.5,15.25,187.5,6,187.5z"/>
<path class="st0" d="M92.73,9.27c-2.41,7.26-4.79,14.44-7.18,21.62c-1.41,4.26-2.92,8.48-4.19,12.78c-0.6,2.05-1.65,2.67-3.74,2.67
	c-22.84-0.07-45.69-0.08-68.53,0.01c-2.54,0.01-3.11-0.87-3.08-3.25c0.12-10.36,0.1-20.72,0.01-31.08C6.01,9.88,6.4,8.94,8.86,8.95
	c27.46,0.09,54.93,0.06,82.39,0.07C91.61,9.02,91.98,9.14,92.73,9.27z"/>
<path class="st0" d="M37.77,79.59c9.49,0,18.99,0.05,28.48-0.03c2.34-0.02,3.1,0.37,2.22,2.94c-3.65,10.61-7.15,21.28-10.57,31.97
	c-0.61,1.92-1.56,2.48-3.47,2.47c-15.12-0.06-30.23-0.07-45.35,0c-2.16,0.01-3.1-0.43-3.07-2.87C6.14,103.58,6.15,93.09,6,82.59
	c-0.04-2.63,0.98-3.07,3.29-3.04C18.78,79.65,28.28,79.59,37.77,79.59z"/>
</svg>
