<?xml version="1.0" encoding="utf-8"?>
<!-- Generator: Adobe Illustrator 16.0.3, SVG Export Plug-In . SVG Version: 6.00 Build 0)  -->
<!DOCTYPE svg PUBLIC "-//W3C//DTD SVG 1.1//EN" "http://www.w3.org/Graphics/SVG/1.1/DTD/svg11.dtd">
<svg version="1.1" xmlns="http://www.w3.org/2000/svg" xmlns:xlink="http://www.w3.org/1999/xlink" x="0px" y="0px"
	 width="167.101px" height="162.6px" viewBox="0 0 167.101 162.6" enable-background="new 0 0 167.101 162.6" xml:space="preserve">
<g id="Capa_1">
	<g>
		<path fill-rule="evenodd" clip-rule="evenodd" d="M85.54,71.482c6.882-7.986,12.322-14.648,18.216-20.881
			c1.401-1.48,4.402-2.317,6.533-2.105c26.379,2.641,47.025,26.709,46.096,53.442c-0.967,27.843-22.102,50.276-49.181,50.934
			c-27.747,0.674-55.52,0.374-83.281,0.312c-8.342-0.018-13.435-4.878-13.231-11.825c0.209-7.116,5.323-11.582,13.539-11.593
			c26.232-0.039,52.466,0.064,78.698-0.042c11.869-0.048,21.216-5.038,26.706-15.751c5.223-10.192,4.552-20.425-1.949-29.917
			c-5.986-8.741-14.719-12.458-25.125-12.563C97.472,71.44,92.381,71.482,85.54,71.482z"/>
		<path fill-rule="evenodd" clip-rule="evenodd" d="M117.377,7.133c-23.604,27.787-46.116,54.285-69.269,81.54
			c2.677,0.128,4.479,0.286,6.28,0.289c15.705,0.022,31.409-0.039,47.114,0.044c8.786,0.046,14.091,4.493,14.17,11.581
			c0.08,7.149-5.617,11.783-14.586,11.789c-25.664,0.016-51.328,0.042-76.992-0.013c-8.903-0.019-13.814-4.904-13.258-13.466
			c0.146-2.244,1.339-4.777,2.822-6.521C36.74,65.259,59.987,38.285,83.071,11.172c2.441-2.867,4.876-4.275,8.748-4.13
			C99.787,7.343,107.775,7.133,117.377,7.133z"/>
	</g>
</g>
<g id="Capa_2">
</g>
</svg>
